<svg xmlns="http://www.w3.org/2000/svg" viewBox="0 0 512 512" width="512" height="512" role="img" aria-label="Aetnios mark">
  <defs><radialGradient id="fdot" cx="40%" cy="38%" r="70%"><stop offset="0%" stop-color="#E7433B"></stop><stop offset="55%" stop-color="#CB2329"></stop><stop offset="100%" stop-color="#9E1418"></stop></radialGradient></defs>
  <g fill="none" stroke="#16273f" stroke-width="14" stroke-linecap="round" stroke-linejoin="round">
    <path d="M 297.58 60.37 A 200 200 0 0 1 297.58 451.63"></path>
    <path d="M 214.42 451.63 A 200 200 0 0 1 214.42 60.37"></path>
    <line x1="245.59" y1="152.83" x2="206.35" y2="234.37"></line>
    <line x1="266.41" y1="152.83" x2="305.65" y2="234.37"></line>
    <line x1="186.27" y1="277.97" x2="159.59" y2="338.55"></line>
    <line x1="325.73" y1="277.97" x2="352.41" y2="338.55"></line>
    <line x1="216.25" y1="268.78" x2="341.77" y2="347.74"></line>
    <line x1="295.75" y1="268.78" x2="170.23" y2="347.74"></line>
    <circle cx="256" cy="131.20" r="22" stroke-width="13"></circle>
    <circle cx="195.94" cy="256" r="22" stroke-width="13"></circle>
    <circle cx="316.06" cy="256" r="22" stroke-width="13"></circle>
    <circle cx="149.92" cy="360.52" r="22" stroke-width="13"></circle>
    <circle cx="362.08" cy="360.52" r="22" stroke-width="13"></circle>
  </g>
  <circle cx="256" cy="256" r="22" fill="url(#fdot)"></circle>
</svg>
